<?xml version="1.0" encoding="UTF-8" standalone="no" ?>
<!DOCTYPE svg PUBLIC "-//W3C//DTD SVG 1.1//EN" "http://www.w3.org/Graphics/SVG/1.1/DTD/svg11.dtd">
<svg xmlns="http://www.w3.org/2000/svg" xmlns:xlink="http://www.w3.org/1999/xlink" version="1.1" width="1080" height="1080" viewBox="0 0 1080 1080" xml:space="preserve">
<desc>Created with Fabric.js 5.2.4</desc>
<defs>
</defs>
<g transform="matrix(1 0 0 1 540 540)" id="3c708661-6c24-4f6a-b191-0a3de13ee197"  >
<rect style="stroke: none; stroke-width: 1; stroke-dasharray: none; stroke-linecap: butt; stroke-dashoffset: 0; stroke-linejoin: miter; stroke-miterlimit: 4; fill: rgb(255,255,255); fill-rule: nonzero; opacity: 1; visibility: hidden;" vector-effect="non-scaling-stroke"  x="-540" y="-540" rx="0" ry="0" width="1080" height="1080" />
</g>
<g transform="matrix(1 0 0 1 540 540)" id="091689ad-a792-4012-96d2-aa22c16ac7cc"  >
</g>
<g transform="matrix(0.04 0 0 0.04 540 540)"  >
<polygon style="stroke: none; stroke-width: 1; stroke-dasharray: none; stroke-linecap: butt; stroke-dashoffset: 0; stroke-linejoin: miter; stroke-miterlimit: 4; fill: none; fill-rule: evenodd; opacity: 1;" vector-effect="non-scaling-stroke"  points="-8466.67,-8466.67 8466.67,-8466.67 8466.67,8466.67 -8466.67,8466.67 " />
</g>
<g transform="matrix(0.04 0 0 0.04 539.71 506.89)"  >
<path style="stroke: none; stroke-width: 1; stroke-dasharray: none; stroke-linecap: butt; stroke-dashoffset: 0; stroke-linejoin: miter; stroke-miterlimit: 4; fill: rgb(8,197,175); fill-rule: nonzero; opacity: 1;" vector-effect="non-scaling-stroke"  transform=" translate(-8459.08, -7590.53)" d="M 8133.78 8690.21 C 8117.389999999999 8707.74 8099.98 8720.009999999998 8081.55 8727.019999999999 C 8063.110000000001 8734.029999999999 8043.650000000001 8741.039999999999 8023.16 8748.05 C 7859.28 8818.17 7705.639999999999 8899.679999999998 7562.25 8992.58 C 7418.85 9085.48 7281.6 9186.26 7150.5 9294.94 C 7138.2 9305.460000000001 7124.89 9316.85 7110.55 9329.12 C 7096.21 9341.390000000001 7082.900000000001 9354.54 7070.610000000001 9368.560000000001 C 7009.160000000001 9431.660000000002 7027.59 9471.980000000001 7125.920000000001 9489.500000000002 C 7191.470000000001 9500.020000000002 7255.990000000001 9504.400000000001 7319.500000000001 9502.650000000001 C 7383.010000000001 9500.900000000001 7447.530000000001 9496.520000000002 7513.080000000001 9489.500000000002 C 8127.630000000001 9401.860000000002 8705.310000000001 9214.310000000001 9246.12 8926.840000000002 C 9315.77 8891.790000000003 9380.29 8854.100000000002 9439.710000000001 8813.790000000003 C 9499.11 8773.470000000003 9557.490000000002 8730.530000000002 9614.85 8684.950000000003 C 9639.44 8660.410000000002 9663 8636.750000000002 9685.53 8613.960000000003 C 9708.060000000001 8591.180000000002 9729.560000000001 8565.760000000002 9750.050000000001 8537.710000000003 C 9791.03 8478.120000000003 9806.380000000001 8426.410000000003 9796.140000000001 8382.590000000002 C 9785.910000000002 8338.770000000002 9745.960000000001 8295.820000000002 9676.310000000001 8253.750000000002 C 9586.170000000002 8201.170000000002 9491.94 8163.480000000001 9393.62 8140.700000000002 C 9295.28 8117.910000000002 9192.86 8097.750000000002 9086.33 8080.220000000002 C 8947.039999999999 8062.700000000002 8807.74 8049.550000000002 8668.44 8040.790000000002 C 8529.140000000001 8032.020000000001 8389.85 8022.380000000002 8250.54 8011.8600000000015 C 8131.7300000000005 8004.850000000001 8013.9400000000005 7995.210000000002 7897.180000000001 7982.940000000001 C 7780.420000000001 7970.670000000001 7664.670000000001 7952.270000000001 7549.950000000001 7927.730000000001 C 7500.800000000001 7917.210000000001 7452.650000000001 7905.8200000000015 7405.540000000001 7893.550000000001 C 7358.420000000001 7881.280000000001 7312.340000000001 7866.380000000001 7267.260000000001 7848.850000000001 C 7107.480000000001 7785.750000000001 6994.8200000000015 7694.600000000001 6929.270000000001 7575.410000000002 C 6863.700000000002 7456.210000000002 6853.460000000001 7323.000000000002 6898.530000000002 7175.760000000002 C 6919.020000000001 7105.650000000002 6947.700000000002 7039.920000000002 6984.5700000000015 6978.570000000002 C 7021.440000000001 6917.220000000002 7062.410000000002 6856.7400000000025 7107.480000000001 6797.150000000002 C 7205.810000000001 6667.440000000002 7316.430000000001 6547.370000000003 7439.340000000001 6436.940000000002 C 7562.250000000001 6326.510000000002 7695.410000000001 6225.720000000002 7838.790000000001 6134.580000000003 C 7998.610000000001 6025.180000000003 8164.030000000001 5927.510000000003 8335.050000000001 5841.590000000003 L 8335.050000000001 6065.860000000003 C 8144.760000000001 6169.460000000004 7962.960000000001 6287.020000000003 7789.640000000001 6418.530000000003 C 7695.410000000002 6492.150000000003 7605.270000000001 6569.280000000003 7519.230000000001 6649.9100000000035 C 7433.190000000001 6730.540000000004 7355.350000000001 6816.430000000004 7285.700000000002 6907.580000000004 C 7244.730000000001 6960.1600000000035 7208.880000000002 7013.6200000000035 7178.1500000000015 7067.960000000004 C 7147.420000000002 7122.300000000004 7121.8200000000015 7179.270000000004 7101.330000000002 7238.860000000003 C 7043.970000000002 7445.7000000000035 7130.010000000002 7594.690000000003 7359.450000000002 7685.840000000004 C 7437.290000000002 7717.390000000004 7517.180000000001 7740.170000000004 7599.120000000002 7754.2000000000035 C 7681.0700000000015 7768.220000000004 7763.000000000002 7780.490000000003 7844.940000000001 7791.010000000004 C 7984.250000000002 7808.530000000004 8122.510000000001 7822.560000000004 8259.760000000002 7833.070000000004 C 8397.010000000002 7843.590000000005 8535.290000000003 7852.360000000004 8674.580000000002 7859.370000000004 C 8789.300000000001 7866.380000000005 8902.990000000002 7876.890000000005 9015.660000000002 7890.920000000005 C 9128.340000000002 7904.940000000005 9239.970000000001 7924.220000000005 9350.600000000002 7948.760000000005 C 9502.190000000002 7980.310000000005 9643.530000000002 8032.900000000005 9774.640000000003 8106.520000000005 C 10032.740000000003 8250.250000000005 10079.870000000003 8432.540000000005 9915.980000000003 8653.400000000005 C 9879.110000000002 8705.990000000005 9831.990000000003 8758.570000000005 9774.640000000003 8811.160000000005 C 9676.310000000003 8895.290000000005 9577.980000000003 8967.160000000005 9479.650000000003 9026.760000000006 C 9164.180000000004 9202.040000000006 8837.440000000002 9345.770000000006 8499.430000000004 9457.950000000006 C 8161.440000000004 9570.140000000007 7806.020000000004 9645.510000000006 7433.190000000004 9684.070000000007 C 7314.380000000004 9694.590000000007 7199.660000000004 9684.070000000007 7089.050000000004 9652.520000000008 C 7027.590000000004 9634.990000000007 6980.480000000004 9610.450000000008 6947.7000000000035 9578.900000000007 C 6878.040000000004 9515.800000000007 6871.9100000000035 9447.440000000008 6929.270000000003 9373.820000000007 C 6937.460000000003 9359.790000000006 6955.890000000003 9340.510000000007 6984.570000000003 9315.970000000007 C 7140.260000000003 9189.770000000006 7302.090000000004 9074.960000000006 7470.060000000003 8971.540000000006 C 7638.050000000003 8868.120000000006 7822.4100000000035 8783.110000000006 8023.1600000000035 8716.500000000005 C 8043.650000000003 8709.490000000005 8062.080000000004 8701.600000000006 8078.480000000003 8692.840000000006 C 8094.860000000003 8684.080000000005 8113.290000000004 8683.200000000006 8133.780000000003 8690.210000000006 z M 8598.31 5721.079999999999 C 8734.18 5665.499999999999 8876.18 5617.929999999999 9024.279999999999 5578.359999999999 C 9041.14 5637.159999999999 9056.589999999998 5699.0999999999985 9069.539999999999 5764.609999999999 C 8905.449999999999 5810.879999999999 8748.369999999999 5867.549999999998 8598.31 5934.669999999999 L 8598.31 5721.079999999999 z M 9175.869999999999 5541.129999999999 C 9184.919999999998 5539.089999999999 9193.999999999998 5537.089999999999 9203.099999999999 5535.109999999999 C 9313.72 5507.059999999999 9420.239999999998 5493.039999999999 9522.669999999998 5493.039999999999 C 9694.739999999998 5496.539999999999 9827.899999999998 5540.359999999999 9922.129999999997 5624.499999999999 C 10016.359999999997 5708.639999999999 10057.329999999998 5824.319999999999 10045.039999999997 5971.5599999999995 C 10040.939999999997 6069.719999999999 10018.399999999998 6171.379999999999 9977.439999999997 6276.549999999999 C 9899.599999999997 6458.849999999999 9803.309999999998 6630.629999999999 9688.599999999997 6791.889999999999 C 9573.879999999997 6953.15 9442.779999999997 7107.4 9295.279999999997 7254.639999999999 L 9221.539999999997 7317.74 C 9184.669999999996 7338.7699999999995 9153.939999999997 7338.7699999999995 9129.349999999997 7317.74 C 9100.669999999996 7300.21 9098.629999999997 7277.42 9123.209999999997 7249.38 C 9131.399999999998 7231.85 9142.679999999997 7215.2 9156.999999999998 7199.42 C 9171.339999999998 7183.65 9184.669999999998 7167 9196.959999999997 7149.47 C 9303.479999999998 7026.77 9402.839999999997 6901.4400000000005 9495.009999999997 6773.4800000000005 C 9587.199999999997 6645.530000000001 9668.119999999997 6511.4400000000005 9737.759999999997 6371.210000000001 C 9758.239999999996 6325.630000000001 9777.699999999997 6280.9400000000005 9796.139999999996 6237.120000000001 C 9814.589999999997 6193.300000000001 9829.939999999995 6146.85 9842.239999999996 6097.77 C 9854.529999999997 6045.18 9860.669999999996 5990.84 9860.669999999996 5934.75 C 9856.579999999996 5773.49 9756.199999999997 5687.6 9559.549999999996 5677.08 C 9510.379999999996 5673.58 9461.209999999995 5676.21 9412.049999999996 5684.97 C 9362.889999999996 5693.740000000001 9315.769999999995 5703.38 9270.709999999995 5713.89 C 9251.699999999995 5718.13 9232.779999999995 5722.51 9213.949999999995 5727.01 C 9200.059999999996 5661.150000000001 9186.349999999995 5599.45 9175.869999999995 5541.13 z" stroke-linecap="round" />
</g>
<g transform="matrix(0.04 0 0 0.04 607.62 487.36)"  >
<path style="stroke: none; stroke-width: 1; stroke-dasharray: none; stroke-linecap: butt; stroke-dashoffset: 0; stroke-linejoin: miter; stroke-miterlimit: 4; fill: rgb(9,104,196); fill-rule: evenodd; opacity: 1;" vector-effect="non-scaling-stroke"  transform=" translate(-10255.68, -7073.92)" d="M 9101.69 5995.75 C 9047.9 5326.84 8684.78 4995.28 8853.51 4641.62 C 9099.59 4126.05 10621.31 3946.2599999999998 11459.14 6689.28 C 12132.84 8895.15 11451 9814.92 11055.539999999999 9814.06 C 11021.269999999999 9813.99 10989.23 9811.3 10958.949999999999 9806.42 C 11278.519999999999 9461.16 11565.179999999998 8669.4 11351.829999999998 7263.07 C 10963.319999999998 4702.549999999999 9531.739999999998 4679.32 9231.809999999998 5111.69 C 9026.149999999998 5408.2699999999995 9315.089999999998 5749.509999999999 9270.719999999998 6355.679999999999 L 9270.779999999997 6355.8099999999995 C 9261.299999999997 6523.87 9220.089999999997 6705.669999999999 9147.169999999996 6901.219999999999 L 9148.099999999997 6901.94 C 9094.369999999997 7047.62 9020.729999999996 7205 8920.889999999998 7375.8099999999995 C 8855.769999999997 7487.169999999999 8805.199999999997 7594.62 8767.499999999998 7697.74 C 8783.529999999999 7533.139999999999 8826.079999999998 7353.88 8900.459999999997 7160.92 C 8977.899999999998 6959.91 9029.799999999997 6777.34 9062.539999999997 6610.4 L 9061.429999999997 6609.75 C 9106.219999999998 6385.56 9119.669999999996 6180.94 9101.779999999997 5995.9 L 9101.689999999997 5995.75 z" stroke-linecap="round" />
</g>
<g transform="matrix(0.04 0 0 0.04 540 466.33)"  >
<path style="stroke: none; stroke-width: 1; stroke-dasharray: none; stroke-linecap: butt; stroke-dashoffset: 0; stroke-linejoin: miter; stroke-miterlimit: 4; fill: rgb(9,104,196); fill-rule: evenodd; opacity: 1;" vector-effect="non-scaling-stroke"  transform=" translate(-8466.67, -6517.46)" d="M 8466.69 3223.12 C 8538.9 3223.12 8597.480000000001 3281.73 8597.480000000001 3354 C 8597.480000000001 3426.27 8538.900000000001 3484.85 8466.69 3484.85 C 8394.4 3484.85 8335.82 3426.27 8335.82 3354 C 8335.82 3281.73 8394.4 3223.12 8466.69 3223.12 L 8466.69 3223.12 z M 8598.310000000001 3604.75 L 8598.310000000001 6102.5599999999995 C 8598.310000000001 6426.129999999999 8540.160000000002 6553.419999999999 8540.02 6557.589999999999 L 8521.28 7850.919999999999 C 8484.76 7848.73 8448.320000000002 7846.419999999999 8411.94 7843.989999999999 L 8393.28 6557.589999999998 C 8393.19 6549.089999999998 8335.050000000001 6426.1399999999985 8335.050000000001 6102.559999999999 L 8335.04 3604.7499999999986 C 8244.960000000001 3557.3499999999985 8183.500000000001 3462.8699999999985 8183.500000000001 3353.9999999999986 C 8183.500000000001 3197.6999999999985 8310.29 3070.799999999999 8466.68 3070.799999999999 C 8623.08 3070.799999999999 8749.83 3197.699999999999 8749.83 3353.9999999999986 C 8749.83 3462.8699999999985 8688.34 3557.3499999999985 8598.31 3604.7499999999986 L 8598.31 3604.7499999999986 z M 8518.670000000002 8031.03 L 8491.600000000002 9898.45 C 8490.760000000002 9942.560000000001 8488.810000000001 9954.37 8466.690000000002 9964.12 C 8444.580000000002 9954.37 8442.600000000002 9942.560000000001 8441.730000000003 9898.45 L 8414.540000000003 8023.840000000001 C 8449.250000000002 8026.290000000001 8483.960000000003 8028.690000000001 8518.670000000002 8031.030000000001 z" stroke-linecap="round" />
</g>
<g transform="matrix(0.04 0 0 0.04 472.38 487.56)"  >
<path style="stroke: none; stroke-width: 1; stroke-dasharray: none; stroke-linecap: butt; stroke-dashoffset: 0; stroke-linejoin: miter; stroke-miterlimit: 4; fill: rgb(9,104,196); fill-rule: evenodd; opacity: 1;" vector-effect="non-scaling-stroke"  transform=" translate(-6677.63, -7079.17)" d="M 7831.62 6001 C 7885.41 5332.09 8248.53 5000.53 8079.8 4646.87 C 7833.72 4131.3 6312 3951.5099999999998 5474.17 6694.53 C 4800.47 8900.4 5482.31 9820.16 5877.77 9819.31 C 5912.040000000001 9819.24 5944.080000000001 9816.539999999999 5974.360000000001 9811.66 C 5654.790000000001 9466.41 5368.130000000001 8674.65 5581.4800000000005 7268.32 C 5969.990000000001 4707.799999999999 7401.570000000001 4684.57 7701.5 5116.93 C 7895.28 5396.39 7649.99 5715.52 7658.12 6258.52 C 7711.78 6218.830000000001 7767.08 6180.67 7823.99 6144.05 C 7824.54 6095.1900000000005 7827.04 6047.54 7831.53 6001.14 L 7831.62 6001 z M 7678.45 6508.62 C 7698.17 6634.23 7734.07 6766.83 7786.139999999999 6906.46 L 7785.209999999999 6907.19 C 7838.939999999999 7052.87 7912.579999999999 7210.25 8012.419999999999 7381.0599999999995 C 8077.539999999999 7492.419999999999 8128.109999999999 7599.87 8165.8099999999995 7702.99 C 8149.78 7538.389999999999 8107.23 7359.12 8032.849999999999 7166.17 C 7955.41 6965.16 7903.509999999999 6782.59 7870.7699999999995 6615.65 L 7871.879999999999 6615 C 7855.989999999999 6535.47 7844.049999999999 6458.41 7836.049999999999 6383.81 C 7820.5199999999995 6395.280000000001 7805.039999999999 6406.84 7789.639999999999 6418.530000000001 C 7751.919999999999 6448.000000000001 7714.86 6478.030000000001 7678.45 6508.620000000001 z" stroke-linecap="round" />
</g>
</svg>